<!-- Ícone "Pendente" - relógio/espera - fundo transparente -->
<svg xmlns="http://www.w3.org/2000/svg" width="48" height="48" viewBox="0 0 24 24" role="img" aria-label="Pendente">
  <title>Pendente</title>
  <desc>Ícone de relógio representando status pendente/espera</desc>

  <!-- contorno do relógio -->
  <circle cx="12" cy="12" r="8.2" fill="none" stroke="#111827" stroke-width="1.6" stroke-linecap="round" stroke-linejoin="round"></circle>

  <!-- marcações (quartes) -->
  <line x1="12" y1="3.5" x2="12" y2="5.2" stroke="#111827" stroke-width="1.2" stroke-linecap="round"></line>
  <line x1="12" y1="18.8" x2="12" y2="20.5" stroke="#111827" stroke-width="1.2" stroke-linecap="round"></line>
  <line x1="3.5" y1="12" x2="5.2" y2="12" stroke="#111827" stroke-width="1.2" stroke-linecap="round"></line>
  <line x1="18.8" y1="12" x2="20.5" y2="12" stroke="#111827" stroke-width="1.2" stroke-linecap="round"></line>

  <!-- ponteiro das horas -->
  <line x1="12" y1="12" x2="12" y2="8.2" stroke="#111827" stroke-width="1.6" stroke-linecap="round"></line>

  <!-- ponteiro dos minutos (apontando para direita) -->
  <line x1="12" y1="12" x2="15.3" y2="12" stroke="#111827" stroke-width="1.6" stroke-linecap="round"></line>

  <!-- pequeno triângulo ou 'areia' para sugerir espera (estilizado como um pingo) -->
  <path d="M12 16.2c-.5.8-1.6 1.4-1.6 2.1 0 .7.7 1.2 1.6 1.2s1.6-.5 1.6-1.2c0-.7-1.1-1.3-1.6-2.1z" fill="#111827" opacity="0.95"></path>

  <!-- opcional: um pequeno arco indicando carregamento (discreto) -->
  <path d="M4.5 7.5 A7 7 0 0 1 9 5.2" fill="none" stroke="#111827" stroke-width="1.2" stroke-linecap="round" stroke-dasharray="3 3" opacity="0.9"></path>
</svg>
